<?xml version="1.0" standalone="no"?><!DOCTYPE svg PUBLIC "-//W3C//DTD SVG 1.1//EN" "http://www.w3.org/Graphics/SVG/1.1/DTD/svg11.dtd"><svg t="1740754274828" class="icon" viewBox="0 0 1024 1024" version="1.1" xmlns="http://www.w3.org/2000/svg" p-id="4573" xmlns:xlink="http://www.w3.org/1999/xlink" width="200" height="200"><path d="M908.660797 621.881598L804.153472 231.202702s-6.397755-25.175165-30.709223-14.07506l-238.860175 110.905079 36.691124 136.496098 46.479689 174.018931 0.415854 2.559102c2.143248 20.056961-17.497859 33.684179-17.49786 33.684179l-80.195856 37.106977 21.336512 80.611711 1.695405 4.254507c2.974956 7.261452 11.931813 25.591019 34.547876 38.802382l296.439968 182.11209s29.013818 17.497859 22.168221-7.261451l-84.450364-315.633233 79.33216-36.691123s23.895614-11.100105 17.050016-36.243281z m-321.583145 3.838653l-0.415854-2.559102-48.207082-180.000831-28.150121-104.507324-28.565975-106.20273v-1.695405s-6.813609-25.175165-35.827427-42.641035L149.471225 6.001734S120.457407-11.496126 127.303005 13.263185l84.866217 316.464941-79.748014 37.106978s-23.895614 11.100105-17.050016 36.243281l104.507324 390.678896s6.813609 25.175165 30.709223 14.07506l318.608189-148.427911s22.16822-10.236408 17.913713-33.684179z" fill="#004F9F" p-id="4574"></path></svg>